<svg xmlns="http://www.w3.org/2000/svg" viewBox="0 0 800 1000"><defs><linearGradient id="bg" x2="1" y2="1"><stop stop-color="#07090d"/><stop offset=".55" stop-color="#3b1018"/><stop offset="1" stop-color="#1247a0"/></linearGradient><pattern id="web" width="90" height="90" patternUnits="userSpaceOnUse"><path d="M45 0v90M0 45h90M13 13l64 64M77 13L13 77M45 12c18 18 18 48 0 66M12 45c18-18 48-18 66 0" fill="none" stroke="#6da0ff" stroke-opacity=".22"/></pattern></defs><rect width="800" height="1000" fill="url(#bg)"/><rect width="800" height="1000" fill="url(#web)"/><circle cx="400" cy="380" r="210" fill="#0d111a" stroke="#2979ff" stroke-width="9"/><path d="M220 805c42-215 100-305 180-305s138 90 180 305" fill="#0d111a" stroke="#d32f2f" stroke-width="14"/><path d="M400 170v440M180 380h440M245 225l310 310M555 225L245 535" stroke="#d32f2f" stroke-width="9"/><path d="M305 365l68-30 22 67-78 17zM495 365l-68-30-22 67 78 17z" fill="#dce9ff" stroke="#2979ff" stroke-width="6"/><text x="400" y="920" text-anchor="middle" fill="white" font-family="monospace" font-size="28" letter-spacing="5">ANDREW GARFIELD / ORIGINAL FALLBACK ART</text></svg>